<?xml version="1.0" encoding="utf-8"?>
<!-- Generator: Adobe Illustrator 16.0.0, SVG Export Plug-In . SVG Version: 6.00 Build 0)  -->
<!DOCTYPE svg PUBLIC "-//W3C//DTD SVG 1.1//EN" "http://www.w3.org/Graphics/SVG/1.1/DTD/svg11.dtd">
<svg version="1.1" id="Layer_1" xmlns="http://www.w3.org/2000/svg" xmlns:xlink="http://www.w3.org/1999/xlink" x="0px" y="0px"
	 width="993px" height="276px" viewBox="0 0 993 276" enable-background="new 0 0 993 276" xml:space="preserve">
<g id="Layer_2" display="none">
	
		<image display="inline" overflow="visible" enable-background="new    " width="1105" height="225" xlink:href="viodev-dark.png"  transform="matrix(0.7999 0 0 0.7999 60.001 39.4995)">
	</image>
</g>
<g>
	<polygon fill="#2C2865" points="131.953,217.912 141.236,217.912 189.032,104.442 179.75,104.442 131.953,217.912 	"/>
	<polygon fill="#2C2865" points="208.059,104.442 208.059,117.815 251.676,161.134 208.059,204.481 208.059,217.825 
		265.139,161.134 208.059,104.442 	"/>
	<polygon fill="#2C2865" points="112.927,217.825 112.927,204.481 69.31,161.134 112.927,117.815 112.927,104.442 55.847,161.134 
		112.927,217.825 	"/>
	<path fill="#2C2865" d="M384.444,103.287l-40.729,108.648h-26.652l-40.916-108.648h29.655l24.587,72.808l24.588-72.808H384.444
		L384.444,103.287L384.444,103.287z M424.799,84.335h-28.154V56.188h28.154V84.335L424.799,84.335z M424.424,211.748h-27.403V103.1
		h27.403V211.748L424.424,211.748z M561.251,157.518c0,8.132-1.502,15.669-4.506,22.611c-3.003,6.943-7.132,12.948-12.388,18.015
		c-5.255,5.066-11.417,9.069-18.486,12.01c-7.07,2.939-14.609,4.41-22.617,4.41c-8.009-0.001-15.516-1.471-22.523-4.41
		c-7.007-2.94-13.138-6.975-18.394-12.104c-5.255-5.129-9.385-11.165-12.388-18.108c-3.003-6.942-4.504-14.417-4.504-22.424
		c0-7.881,1.532-15.293,4.598-22.236c3.065-6.942,7.227-13.01,12.481-18.202c5.256-5.191,11.387-9.257,18.395-12.197
		c7.007-2.94,14.452-4.41,22.335-4.41c8.008,0,15.547,1.47,22.617,4.41c7.069,2.94,13.231,6.943,18.486,12.01
		c5.256,5.066,9.385,11.102,12.388,18.107C559.749,142.006,561.251,149.511,561.251,157.518L561.251,157.518L561.251,157.518z
		 M534.223,157.518c0-4.629-0.813-8.944-2.44-12.947c-1.626-4.004-3.847-7.506-6.662-10.509c-2.815-3.002-6.101-5.348-9.854-7.036
		c-3.753-1.689-7.758-2.534-12.012-2.534c-4.255,0-8.259,0.845-12.013,2.534c-3.753,1.688-7.038,4.034-9.854,7.036
		c-2.815,3.003-5.036,6.505-6.662,10.509c-1.628,4.003-2.44,8.318-2.44,12.947s0.813,8.944,2.44,12.947
		c1.626,4.004,3.847,7.507,6.662,10.509c2.815,3.003,6.101,5.349,9.854,7.037c3.754,1.689,7.758,2.533,12.013,2.533
		c4.254,0,8.259-0.844,12.012-2.533c3.754-1.688,7.039-4.034,9.854-7.037c2.815-3.002,5.036-6.505,6.662-10.509
		C533.409,166.462,534.223,162.146,534.223,157.518L534.223,157.518z M678.745,211.748h-27.59v-5.629
		c-3.504,2.877-7.32,4.972-11.449,6.286c-4.13,1.313-8.509,1.97-13.14,1.97c-7.632,0-14.639-1.532-21.021-4.598
		c-6.382-3.064-11.888-7.192-16.517-12.384c-4.63-5.192-8.228-11.228-10.793-18.108c-2.564-6.881-3.848-14.137-3.848-21.768
		c0-8.131,1.47-15.668,4.41-22.611c2.941-6.943,6.852-12.979,11.731-18.108c4.88-5.128,10.448-9.163,16.704-12.103
		c6.257-2.94,12.7-4.41,19.332-4.41c4.631,0,9.135,0.625,13.515,1.876c4.379,1.251,8.133,3.002,11.261,5.254V56h27.403V211.748
		L678.745,211.748L678.745,211.748z M651.53,182.662v-52.166c-1.251-0.875-2.69-1.72-4.317-2.533
		c-1.627-0.813-3.315-1.501-5.067-2.063c-1.751-0.563-3.503-1.001-5.255-1.313c-1.752-0.313-3.316-0.47-4.693-0.47
		c-4.504,0-8.603,0.782-12.293,2.346c-3.691,1.563-6.913,3.816-9.667,6.756c-2.752,2.939-4.88,6.474-6.381,10.601
		c-1.501,4.13-2.253,8.695-2.253,13.699c0,4.879,0.752,9.352,2.253,13.417s3.565,7.568,6.194,10.509
		c2.627,2.939,5.787,5.222,9.478,6.849c3.691,1.626,7.727,2.439,12.105,2.439C638.767,190.731,645.398,188.042,651.53,182.662
		L651.53,182.662L651.53,182.662z M813.32,157.331c0,1.751-0.095,3.564-0.281,5.44c-0.188,1.877-0.407,3.816-0.657,5.817h-86.714
		c1.001,3.128,2.408,6.099,4.224,8.914c1.813,2.814,4.035,5.254,6.662,7.317c2.628,2.064,5.601,3.69,8.916,4.88
		c3.315,1.188,6.976,1.782,10.98,1.782c4.879,0,9.759-0.845,14.64-2.533c4.88-1.689,8.946-3.972,12.2-6.85l17.079,17.076
		c-7.507,5.63-14.859,9.602-22.054,11.915c-7.194,2.314-14.796,3.473-22.804,3.473c-8.134,0-15.735-1.502-22.806-4.504
		c-7.069-3.003-13.2-7.068-18.394-12.197c-5.192-5.13-9.291-11.165-12.294-18.108c-3.002-6.942-4.504-14.355-4.504-22.236
		s1.502-15.293,4.504-22.236c3.003-6.942,7.133-12.979,12.389-18.107c5.255-5.129,11.386-9.195,18.393-12.198
		c7.008-3.002,14.515-4.503,22.523-4.503c7.633,0,14.953,1.408,21.96,4.223c7.007,2.814,13.201,6.724,18.581,11.728
		s9.636,10.978,12.764,17.92C811.756,141.286,813.32,148.949,813.32,157.331L813.32,157.331L813.32,157.331z M784.979,146.821
		c-2.127-6.88-5.912-12.416-11.355-16.606c-5.442-4.19-11.605-6.286-18.487-6.286c-6.758,0-12.826,2.096-18.207,6.286
		c-5.38,4.19-9.134,9.727-11.261,16.606H784.979L784.979,146.821z M930.064,103.287l-40.729,108.648h-26.653l-40.917-108.648h29.656
		l24.588,72.808l24.586-72.808H930.064L930.064,103.287L930.064,103.287z"/>
</g>
</svg>
