<?xml version="1.0" encoding="utf-8"?>
<!-- Generator: Adobe Illustrator 16.0.0, SVG Export Plug-In . SVG Version: 6.00 Build 0)  -->
<!DOCTYPE svg PUBLIC "-//W3C//DTD SVG 1.1//EN" "http://www.w3.org/Graphics/SVG/1.1/DTD/svg11.dtd">
<svg version="1.1" id="Ñëîé_1" xmlns="http://www.w3.org/2000/svg" xmlns:xlink="http://www.w3.org/1999/xlink" x="0px" y="0px"
	 width="415px" height="302px" viewBox="0 0 415 302" enable-background="new 0 0 415 302" xml:space="preserve">
<g>
	<g>
		<path fill="#40115E" d="M359.878,185.035L359.878,185.035v-15.197l-34.076-0.019l-11.778-6.801
			c-2.703-1.561-7.425-1.365-10.546,0.438l-10.989,6.345l-34.106-0.02v15.63c-0.077,1.056,0.512,2.075,1.811,2.825l44.044,25.429
			c2.703,1.561,7.425,1.365,10.546-0.438l42.528-24.553C359.11,187.635,359.979,186.288,359.878,185.035z"/>
		<path fill="#4D1877" d="M309.131,161.974c-1.979,0.047-4.031,0.546-5.653,1.482l-10.989,6.345l-34.106-0.02v15.63
			c-0.077,1.056,0.512,2.075,1.811,2.825l44.044,25.429c1.299,0.75,3.064,1.09,4.895,1.046V161.974z"/>
		<path fill="#B45EF4" d="M262.241,169.784l-3.859-0.003v15.63c-0.077,1.056,0.512,2.075,1.811,2.825l2.049,1.183V169.784z"/>
		<path fill="#6529AA" d="M304.915,213.997c2.331,0.999,5.704,0.943,8.43-0.096v-17.746h-8.43V213.997z"/>
		<path fill="#5A2091" d="M304.236,198.093l-44.044-25.43c-2.703-1.561-2.364-4.286,0.757-6.088l42.528-24.555
			c3.121-1.801,7.843-1.997,10.546-0.437l44.044,25.429c2.703,1.561,2.364,4.287-0.757,6.089l-42.528,24.554
			C311.661,199.457,306.939,199.653,304.236,198.093z"/>
		<path fill="#310B45" d="M305.029,193.515l-36.909-21.309c-2.266-1.309-1.981-3.593,0.634-5.103l35.64-20.576
			c2.615-1.511,6.572-1.675,8.837-0.366l36.909,21.309c2.266,1.309,1.981,3.593-0.635,5.104l-35.639,20.576
			C311.251,194.659,307.294,194.823,305.029,193.515z"/>
		<g>
			<path fill="#6529AA" d="M343.679,189.046c0,1.134-0.797,2.514-1.779,3.08c-0.982,0.568-1.779,0.107-1.779-1.026
				s0.797-2.515,1.779-3.081C342.882,187.451,343.679,187.911,343.679,189.046z"/>
			<path fill="#6529AA" d="M349.402,185.741c0,1.135-0.797,2.514-1.779,3.081s-1.779,0.107-1.779-1.027
				c0-1.134,0.797-2.514,1.779-3.081S349.402,184.606,349.402,185.741z"/>
			<path fill="#6529AA" d="M355.126,182.437c0,1.135-0.797,2.514-1.779,3.081s-1.779,0.107-1.779-1.026
				c0-1.135,0.797-2.515,1.779-3.082C354.329,180.843,355.126,181.302,355.126,182.437z"/>
		</g>
	</g>
	<g>
		<path fill="#40115E" d="M359.878,160.39L359.878,160.39v-15.197l-34.076-0.02l-11.778-6.801
			c-2.703-1.561-7.425-1.364-10.546,0.438l-10.989,6.345l-34.106-0.019v15.629c-0.077,1.057,0.512,2.076,1.811,2.826l44.044,25.428
			c2.703,1.561,7.425,1.365,10.546-0.438l42.528-24.553C359.11,162.989,359.979,161.642,359.878,160.39z"/>
		<path fill="#4D1877" d="M309.131,137.327c-1.979,0.048-4.031,0.547-5.653,1.482l-10.989,6.345l-34.106-0.019v15.629
			c-0.077,1.057,0.512,2.076,1.811,2.826l44.044,25.428c1.299,0.75,3.064,1.09,4.895,1.046V137.327z"/>
		<path fill="#B45EF4" d="M262.241,145.138l-3.859-0.002v15.629c-0.077,1.057,0.512,2.076,1.811,2.826l2.049,1.182V145.138z"/>
		<path fill="#6529AA" d="M304.915,189.351c2.331,1,5.704,0.943,8.43-0.096v-17.746h-8.43V189.351z"/>
		<path fill="#5A2091" d="M304.236,173.446l-44.044-25.429c-2.703-1.562-2.364-4.286,0.757-6.089l42.528-24.554
			c3.121-1.802,7.843-1.998,10.546-0.437l44.044,25.428c2.703,1.561,2.364,4.287-0.757,6.09l-42.528,24.553
			C311.661,174.812,306.939,175.007,304.236,173.446z"/>
		<path fill="#310B45" d="M305.029,168.869l-36.909-21.31c-2.266-1.308-1.981-3.592,0.634-5.103l35.64-20.576
			c2.615-1.51,6.572-1.674,8.837-0.367l36.909,21.31c2.266,1.308,1.981,3.593-0.635,5.103l-35.639,20.576
			C311.251,170.013,307.294,170.177,305.029,168.869z"/>
		<g>
			<path fill="#6529AA" d="M343.679,164.399c0,1.135-0.797,2.514-1.779,3.082c-0.982,0.566-1.779,0.106-1.779-1.027
				c0-1.135,0.797-2.515,1.779-3.082C342.882,162.806,343.679,163.265,343.679,164.399z"/>
			<path fill="#6529AA" d="M349.402,161.095c0,1.135-0.797,2.514-1.779,3.082c-0.982,0.566-1.779,0.106-1.779-1.027
				c0-1.135,0.797-2.514,1.779-3.082C348.605,159.501,349.402,159.96,349.402,161.095z"/>
			<path fill="#6529AA" d="M355.126,157.79c0,1.135-0.797,2.514-1.779,3.082c-0.982,0.566-1.779,0.107-1.779-1.027
				s0.797-2.514,1.779-3.082C354.329,156.196,355.126,156.655,355.126,157.79z"/>
		</g>
	</g>
	<g>
		<path fill="#40115E" d="M359.878,135.743L359.878,135.743v-15.197l-34.076-0.019l-11.778-6.8
			c-2.703-1.561-7.425-1.365-10.546,0.438l-10.989,6.344l-34.106-0.019v15.629c-0.077,1.057,0.512,2.076,1.811,2.826l44.044,25.429
			c2.703,1.561,7.425,1.364,10.546-0.438l42.528-24.554C359.11,138.343,359.979,136.996,359.878,135.743z"/>
		<path fill="#4D1877" d="M309.131,112.681c-1.979,0.048-4.031,0.546-5.653,1.483l-10.989,6.344l-34.106-0.019v15.629
			c-0.077,1.057,0.512,2.076,1.811,2.826l44.044,25.429c1.299,0.749,3.064,1.09,4.895,1.046V112.681z"/>
		<path fill="#B45EF4" d="M262.241,120.492l-3.859-0.002v15.629c-0.077,1.057,0.512,2.076,1.811,2.826l2.049,1.183V120.492z"/>
		<path fill="#6529AA" d="M304.915,164.705c2.331,0.999,5.704,0.943,8.43-0.097v-17.746h-8.43V164.705z"/>
		<path fill="#40115E" d="M304.236,148.8l-44.044-25.429c-2.703-1.561-2.364-4.287,0.757-6.088l42.528-24.554
			c3.121-1.802,7.843-1.998,10.546-0.437l44.044,25.429c2.703,1.561,2.364,4.287-0.757,6.089l-42.528,24.553
			C311.661,150.165,306.939,150.36,304.236,148.8z"/>
		<path fill="#5A2091" d="M357.311,120.819l-42.528,24.553c-3.121,1.803-7.843,1.998-10.546,0.438l-44.044-25.429
			c-0.603-0.348-1.046-0.756-1.349-1.197c-0.929,1.494-0.508,3.116,1.349,4.187l44.044,25.429c2.703,1.561,7.425,1.365,10.546-0.438
			l42.528-24.553c2.425-1.4,3.162-3.356,2.105-4.893C358.992,119.599,358.288,120.254,357.311,120.819z"/>
		<g>
			<path fill="#6529AA" d="M343.679,139.753c0,1.135-0.797,2.514-1.779,3.082c-0.982,0.566-1.779,0.107-1.779-1.027
				s0.797-2.514,1.779-3.081S343.679,138.618,343.679,139.753z"/>
			<path fill="#6529AA" d="M349.402,136.448c0,1.135-0.797,2.515-1.779,3.082c-0.982,0.566-1.779,0.107-1.779-1.027
				s0.797-2.514,1.779-3.081S349.402,135.314,349.402,136.448z"/>
			<path fill="#6529AA" d="M355.126,133.145c0,1.134-0.797,2.514-1.779,3.081s-1.779,0.107-1.779-1.027s0.797-2.514,1.779-3.081
				S355.126,132.01,355.126,133.145z"/>
		</g>
		<g>
			<path fill="#310B45" d="M306.841,133.711l-20.61-11.899c-1.266-0.73-1.106-2.006,0.354-2.849l19.9-11.49
				c1.461-0.844,3.67-0.935,4.936-0.205l20.61,11.899c1.265,0.731,1.105,2.006-0.354,2.85l-19.901,11.49
				C310.314,134.35,308.105,134.441,306.841,133.711z"/>
			<path fill="#6529AA" d="M308.813,123.748l-2.852-1.646c-0.175-0.101-0.153-0.277,0.049-0.394l2.754-1.59
				c0.202-0.117,0.508-0.129,0.683-0.028l2.852,1.646c0.175,0.101,0.153,0.277-0.049,0.394l-2.754,1.59
				C309.294,123.836,308.988,123.849,308.813,123.748z"/>
			<path fill="#5A2091" d="M286.23,121.812l0.058,0.034c0.097-0.069,0.186-0.14,0.297-0.204l19.9-11.49
				c1.461-0.843,3.67-0.935,4.936-0.205l20.552,11.866c1.166-0.835,1.227-1.971,0.059-2.646l-20.61-11.899
				c-1.266-0.73-3.475-0.639-4.936,0.205l-19.9,11.49C285.124,119.806,284.965,121.081,286.23,121.812z"/>
		</g>
	</g>
	<path fill="#6614CF" d="M291.073,176.657l-17.831-10.294c-1.099-0.635-1.99-2.337-1.99-3.803l0,0c0-1.466,0.892-2.14,1.99-1.505
		l17.831,10.295c1.1,0.635,1.99,2.337,1.99,3.803l0,0C293.063,176.619,292.173,177.293,291.073,176.657z"/>
	<path fill="#B45EF4" d="M292.668,175.675l-17.831-10.294c-1.099-0.635-1.99-2.337-1.99-3.803c0-0.247,0.033-0.462,0.081-0.662
		c-0.949-0.345-1.676,0.322-1.676,1.645c0,1.466,0.892,3.168,1.99,3.803l17.831,10.294c0.914,0.528,1.676,0.143,1.909-0.842
		C292.88,175.777,292.775,175.737,292.668,175.675z"/>
</g>
<g>
	<g>
		<path fill="#5793CE" d="M263.449,166.496l-3.86-0.002v15.629c-0.077,1.057,0.512,2.076,1.811,2.826l2.05,1.183V166.496z"/>
	</g>
	<g>
		<path fill="#5793CE" d="M263.449,142.21l-3.86-0.002v15.629c-0.077,1.057,0.512,2.076,1.811,2.826l2.05,1.183V142.21z"/>
	</g>
</g>
<g>
	<g>
		<path fill="#40115E" d="M300.711,219.202L300.711,219.202v-15.197l-34.076-0.019l-11.778-6.801
			c-2.703-1.561-7.425-1.365-10.546,0.438l-10.989,6.345l-34.106-0.02v15.63c-0.077,1.056,0.512,2.075,1.811,2.825l44.044,25.429
			c2.703,1.561,7.425,1.365,10.546-0.438l42.528-24.553C299.943,221.802,300.813,220.455,300.711,219.202z"/>
		<path fill="#4D1877" d="M249.964,196.141c-1.979,0.047-4.031,0.546-5.653,1.482l-10.989,6.345l-34.106-0.02v15.63
			c-0.077,1.056,0.512,2.075,1.811,2.825l44.044,25.429c1.299,0.75,3.064,1.09,4.895,1.046V196.141z"/>
		<path fill="#B45EF4" d="M203.074,203.951l-3.859-0.003v15.63c-0.077,1.056,0.512,2.075,1.811,2.825l2.049,1.183V203.951z"/>
		<path fill="#6529AA" d="M245.748,248.164c2.331,0.999,5.704,0.943,8.43-0.096v-17.746h-8.43V248.164z"/>
		<path fill="#5A2091" d="M245.069,232.26l-44.044-25.43c-2.703-1.561-2.364-4.286,0.757-6.088l42.528-24.555
			c3.121-1.801,7.843-1.997,10.546-0.437L298.9,201.18c2.703,1.561,2.364,4.287-0.757,6.089l-42.528,24.554
			C252.494,233.624,247.772,233.82,245.069,232.26z"/>
		<path fill="#310B45" d="M245.862,227.682l-36.909-21.309c-2.266-1.309-1.981-3.593,0.634-5.103l35.64-20.576
			c2.615-1.511,6.572-1.675,8.837-0.366l36.909,21.309c2.266,1.309,1.981,3.593-0.635,5.104l-35.639,20.576
			C252.084,228.826,248.127,228.99,245.862,227.682z"/>
		<g>
			<path fill="#6529AA" d="M284.512,223.213c0,1.134-0.797,2.514-1.779,3.08c-0.982,0.568-1.779,0.107-1.779-1.026
				s0.797-2.515,1.779-3.081C283.715,221.618,284.512,222.078,284.512,223.213z"/>
			<path fill="#6529AA" d="M290.235,219.908c0,1.135-0.797,2.514-1.779,3.081s-1.779,0.107-1.779-1.027
				c0-1.134,0.797-2.514,1.779-3.081S290.235,218.773,290.235,219.908z"/>
			<path fill="#6529AA" d="M295.959,216.604c0,1.135-0.797,2.514-1.779,3.081s-1.779,0.107-1.779-1.026
				c0-1.135,0.797-2.515,1.779-3.082C295.162,215.01,295.959,215.469,295.959,216.604z"/>
		</g>
	</g>
	<g>
		<path fill="#40115E" d="M300.711,194.557L300.711,194.557v-15.197l-34.076-0.02l-11.778-6.801
			c-2.703-1.561-7.425-1.364-10.546,0.438l-10.989,6.345l-34.106-0.019v15.629c-0.077,1.057,0.512,2.076,1.811,2.826l44.044,25.428
			c2.703,1.561,7.425,1.365,10.546-0.438l42.528-24.553C299.943,197.156,300.813,195.809,300.711,194.557z"/>
		<path fill="#4D1877" d="M249.964,171.494c-1.979,0.048-4.031,0.547-5.653,1.482l-10.989,6.345l-34.106-0.019v15.629
			c-0.077,1.057,0.512,2.076,1.811,2.826l44.044,25.428c1.299,0.75,3.064,1.09,4.895,1.046V171.494z"/>
		<path fill="#B45EF4" d="M203.074,179.305l-3.859-0.002v15.629c-0.077,1.057,0.512,2.076,1.811,2.826l2.049,1.182V179.305z"/>
		<path fill="#6529AA" d="M245.748,223.518c2.331,1,5.704,0.943,8.43-0.096v-17.746h-8.43V223.518z"/>
		<path fill="#5A2091" d="M245.069,207.613l-44.044-25.429c-2.703-1.562-2.364-4.286,0.757-6.089l42.528-24.554
			c3.121-1.802,7.843-1.998,10.546-0.437l44.044,25.428c2.703,1.561,2.364,4.287-0.757,6.09l-42.528,24.553
			C252.494,208.979,247.772,209.174,245.069,207.613z"/>
		<path fill="#310B45" d="M245.862,203.036l-36.909-21.31c-2.266-1.308-1.981-3.592,0.634-5.103l35.64-20.576
			c2.615-1.51,6.572-1.674,8.837-0.367l36.909,21.31c2.266,1.308,1.981,3.593-0.635,5.103l-35.639,20.576
			C252.084,204.18,248.127,204.344,245.862,203.036z"/>
		<g>
			<path fill="#6529AA" d="M284.512,198.566c0,1.135-0.797,2.514-1.779,3.082c-0.982,0.566-1.779,0.106-1.779-1.027
				c0-1.135,0.797-2.515,1.779-3.082C283.715,196.973,284.512,197.432,284.512,198.566z"/>
			<path fill="#6529AA" d="M290.235,195.262c0,1.135-0.797,2.514-1.779,3.082c-0.982,0.566-1.779,0.106-1.779-1.027
				c0-1.135,0.797-2.514,1.779-3.082C289.438,193.668,290.235,194.127,290.235,195.262z"/>
			<path fill="#6529AA" d="M295.959,191.957c0,1.135-0.797,2.514-1.779,3.082c-0.982,0.566-1.779,0.107-1.779-1.027
				s0.797-2.514,1.779-3.082C295.162,190.363,295.959,190.822,295.959,191.957z"/>
		</g>
	</g>
	<g>
		<path fill="#40115E" d="M300.711,169.91L300.711,169.91v-15.197l-34.076-0.019l-11.778-6.8c-2.703-1.561-7.425-1.365-10.546,0.438
			l-10.989,6.344l-34.106-0.019v15.629c-0.077,1.057,0.512,2.076,1.811,2.826l44.044,25.429c2.703,1.561,7.425,1.364,10.546-0.438
			l42.528-24.554C299.943,172.51,300.813,171.163,300.711,169.91z"/>
		<path fill="#4D1877" d="M249.964,146.848c-1.979,0.048-4.031,0.546-5.653,1.483l-10.989,6.344l-34.106-0.019v15.629
			c-0.077,1.057,0.512,2.076,1.811,2.826l44.044,25.429c1.299,0.749,3.064,1.09,4.895,1.046V146.848z"/>
		<path fill="#B45EF4" d="M203.074,154.659l-3.859-0.002v15.629c-0.077,1.057,0.512,2.076,1.811,2.826l2.049,1.183V154.659z"/>
		<path fill="#6529AA" d="M245.748,198.872c2.331,0.999,5.704,0.943,8.43-0.097v-17.746h-8.43V198.872z"/>
		<path fill="#40115E" d="M245.069,182.967l-44.044-25.429c-2.703-1.561-2.364-4.287,0.757-6.088l42.528-24.554
			c3.121-1.802,7.843-1.998,10.546-0.437l44.044,25.429c2.703,1.561,2.364,4.287-0.757,6.089l-42.528,24.553
			C252.494,184.332,247.772,184.527,245.069,182.967z"/>
		<path fill="#5A2091" d="M298.144,154.986l-42.528,24.553c-3.121,1.803-7.843,1.998-10.546,0.438l-44.044-25.429
			c-0.603-0.348-1.046-0.756-1.349-1.197c-0.929,1.494-0.508,3.116,1.349,4.187l44.044,25.429c2.703,1.561,7.425,1.365,10.546-0.438
			l42.528-24.553c2.425-1.4,3.162-3.356,2.105-4.893C299.825,153.766,299.121,154.421,298.144,154.986z"/>
		<g>
			<path fill="#6529AA" d="M284.512,173.92c0,1.135-0.797,2.514-1.779,3.082c-0.982,0.566-1.779,0.107-1.779-1.027
				s0.797-2.514,1.779-3.081S284.512,172.785,284.512,173.92z"/>
			<path fill="#6529AA" d="M290.235,170.615c0,1.135-0.797,2.515-1.779,3.082c-0.982,0.566-1.779,0.107-1.779-1.027
				s0.797-2.514,1.779-3.081S290.235,169.481,290.235,170.615z"/>
			<path fill="#6529AA" d="M295.959,167.312c0,1.134-0.797,2.514-1.779,3.081s-1.779,0.107-1.779-1.027s0.797-2.514,1.779-3.081
				S295.959,166.177,295.959,167.312z"/>
		</g>
		<g>
			<path fill="#310B45" d="M247.674,167.878l-20.61-11.899c-1.266-0.73-1.106-2.006,0.354-2.849l19.9-11.49
				c1.461-0.844,3.67-0.935,4.936-0.205l20.61,11.899c1.265,0.731,1.105,2.006-0.354,2.85l-19.901,11.49
				C251.147,168.517,248.938,168.608,247.674,167.878z"/>
			<path fill="#6529AA" d="M249.646,157.915l-2.852-1.646c-0.175-0.101-0.153-0.277,0.049-0.394l2.754-1.59
				c0.202-0.117,0.508-0.129,0.683-0.028l2.852,1.646c0.175,0.101,0.153,0.277-0.049,0.394l-2.754,1.59
				C250.127,158.003,249.821,158.016,249.646,157.915z"/>
			<path fill="#5A2091" d="M227.063,155.979l0.058,0.034c0.097-0.069,0.186-0.14,0.297-0.204l19.9-11.49
				c1.461-0.843,3.67-0.935,4.936-0.205l20.552,11.866c1.166-0.835,1.227-1.971,0.059-2.646l-20.61-11.899
				c-1.266-0.73-3.475-0.639-4.936,0.205l-19.9,11.49C225.957,153.973,225.798,155.248,227.063,155.979z"/>
		</g>
	</g>
	<path fill="#6614CF" d="M231.906,210.824l-17.831-10.294c-1.099-0.635-1.99-2.337-1.99-3.803l0,0c0-1.466,0.892-2.14,1.99-1.505
		l17.831,10.295c1.1,0.635,1.99,2.337,1.99,3.803l0,0C233.896,210.786,233.006,211.46,231.906,210.824z"/>
	<path fill="#B45EF4" d="M233.501,209.842l-17.831-10.294c-1.099-0.635-1.99-2.337-1.99-3.803c0-0.247,0.033-0.462,0.081-0.662
		c-0.949-0.345-1.676,0.322-1.676,1.645c0,1.466,0.892,3.168,1.99,3.803l17.831,10.294c0.914,0.528,1.676,0.143,1.909-0.842
		C233.713,209.944,233.608,209.904,233.501,209.842z"/>
</g>
<g>
	<g>
		<path fill="#40115E" d="M240.337,256.656L240.337,256.656v-15.197l-34.076-0.019l-11.778-6.8
			c-2.703-1.561-7.425-1.365-10.547,0.438l-10.988,6.344l-34.107-0.02v15.63c-0.077,1.057,0.513,2.075,1.811,2.825l44.044,25.43
			c2.703,1.561,7.425,1.364,10.547-0.438l42.527-24.554C239.569,259.256,240.438,257.91,240.337,256.656z"/>
		<path fill="#4D1877" d="M189.589,233.595c-1.979,0.048-4.031,0.546-5.653,1.483l-10.988,6.344l-34.107-0.02v15.63
			c-0.077,1.057,0.513,2.075,1.811,2.825l44.044,25.43c1.3,0.75,3.065,1.09,4.895,1.045V233.595z"/>
		<path fill="#6529AA" d="M142.7,241.405l-3.86-0.003v15.63c-0.077,1.057,0.513,2.075,1.811,2.825l2.05,1.184V241.405z"/>
		<path fill="#6529AA" d="M185.373,285.619c2.332,0.998,5.704,0.943,8.431-0.096v-17.746h-8.431V285.619z"/>
		<path fill="#5A2091" d="M184.694,269.714l-44.044-25.429c-2.702-1.561-2.363-4.287,0.758-6.089l42.527-24.554
			c3.122-1.802,7.844-1.998,10.547-0.438l44.043,25.43c2.703,1.561,2.364,4.286-0.757,6.088l-42.527,24.555
			C192.119,271.078,187.397,271.274,184.694,269.714z"/>
		<path fill="#310B45" d="M185.487,265.137l-36.909-21.31c-2.266-1.308-1.981-3.593,0.635-5.103l35.639-20.576
			c2.615-1.51,6.572-1.674,8.838-0.366l36.909,21.31c2.265,1.309,1.981,3.592-0.635,5.103l-35.639,20.576
			C191.71,266.281,187.753,266.445,185.487,265.137z"/>
		<g>
			<path fill="#6529AA" d="M224.137,260.667c0,1.134-0.796,2.515-1.778,3.081c-0.983,0.567-1.779,0.107-1.779-1.027
				c0-1.134,0.796-2.514,1.779-3.08C223.341,259.072,224.137,259.533,224.137,260.667z"/>
			<path fill="#6529AA" d="M229.86,257.362c0,1.135-0.796,2.515-1.778,3.081c-0.983,0.567-1.779,0.107-1.779-1.027
				c0-1.134,0.796-2.514,1.779-3.08C229.064,255.768,229.86,256.229,229.86,257.362z"/>
			<path fill="#6529AA" d="M235.584,254.059c0,1.134-0.796,2.514-1.779,3.08c-0.982,0.568-1.778,0.107-1.778-1.026
				c0-1.135,0.796-2.515,1.778-3.081C234.788,252.464,235.584,252.924,235.584,254.059z"/>
		</g>
	</g>
	<g>
		<path fill="#40115E" d="M240.337,232.01L240.337,232.01v-15.196l-34.076-0.019l-11.778-6.801
			c-2.703-1.561-7.425-1.365-10.547,0.438l-10.988,6.344l-34.107-0.019v15.63c-0.077,1.056,0.513,2.075,1.811,2.825l44.044,25.429
			c2.703,1.561,7.425,1.365,10.547-0.438l42.527-24.553C239.569,234.61,240.438,233.264,240.337,232.01z"/>
		<path fill="#4D1877" d="M189.589,208.949c-1.979,0.047-4.031,0.546-5.653,1.482l-10.988,6.344l-34.107-0.019v15.63
			c-0.077,1.056,0.513,2.075,1.811,2.825l44.044,25.429c1.3,0.75,3.065,1.09,4.895,1.045V208.949z"/>
		<path fill="#6529AA" d="M142.7,216.76l-3.86-0.003v15.63c-0.077,1.056,0.513,2.075,1.811,2.825l2.05,1.183V216.76z"/>
		<path fill="#6529AA" d="M185.373,260.973c2.332,0.999,5.704,0.943,8.431-0.096v-17.746h-8.431V260.973z"/>
		<path fill="#5A2091" d="M184.694,245.067l-44.044-25.429c-2.702-1.561-2.363-4.287,0.758-6.088l42.527-24.555
			c3.122-1.801,7.844-1.997,10.547-0.437l44.043,25.429c2.703,1.561,2.364,4.287-0.757,6.089l-42.527,24.554
			C192.119,246.433,187.397,246.629,184.694,245.067z"/>
		<path fill="#310B45" d="M185.487,240.49l-36.909-21.309c-2.266-1.309-1.981-3.593,0.635-5.104l35.639-20.575
			c2.615-1.511,6.572-1.675,8.838-0.366l36.909,21.309c2.265,1.309,1.981,3.593-0.635,5.104l-35.639,20.576
			C191.71,241.635,187.753,241.799,185.487,240.49z"/>
		<g>
			<path fill="#6529AA" d="M224.137,236.021c0,1.134-0.796,2.514-1.778,3.08c-0.983,0.568-1.779,0.108-1.779-1.026
				s0.796-2.515,1.779-3.081C223.341,234.427,224.137,234.887,224.137,236.021z"/>
			<path fill="#6529AA" d="M229.86,232.717c0,1.134-0.796,2.514-1.778,3.081c-0.983,0.567-1.779,0.106-1.779-1.027
				s0.796-2.514,1.779-3.081C229.064,231.122,229.86,231.582,229.86,232.717z"/>
			<path fill="#6529AA" d="M235.584,229.412c0,1.135-0.796,2.514-1.779,3.081c-0.982,0.567-1.778,0.107-1.778-1.027
				c0-1.134,0.796-2.514,1.778-3.081C234.788,227.817,235.584,228.277,235.584,229.412z"/>
		</g>
	</g>
	<g>
		<path fill="#40115E" d="M240.337,207.364L240.337,207.364v-15.196l-34.076-0.02l-11.778-6.801
			c-2.703-1.561-7.425-1.364-10.547,0.438l-10.988,6.345l-34.107-0.019v15.629c-0.077,1.057,0.513,2.076,1.811,2.825l44.044,25.429
			c2.703,1.561,7.425,1.365,10.547-0.438l42.527-24.553C239.569,209.965,240.438,208.617,240.337,207.364z"/>
		<path fill="#4D1877" d="M189.589,184.303c-1.979,0.048-4.031,0.547-5.653,1.482l-10.988,6.345l-34.107-0.019v15.629
			c-0.077,1.057,0.513,2.076,1.811,2.825l44.044,25.429c1.3,0.75,3.065,1.09,4.895,1.046V184.303z"/>
		<path fill="#6529AA" d="M142.7,192.113l-3.86-0.002v15.629c-0.077,1.057,0.513,2.076,1.811,2.825l2.05,1.183V192.113z"/>
		<path fill="#6529AA" d="M185.373,236.326c2.332,1,5.704,0.943,8.431-0.096v-17.746h-8.431V236.326z"/>
		<path fill="#40115E" d="M184.694,220.422l-44.044-25.429c-2.702-1.562-2.363-4.287,0.758-6.089l42.527-24.554
			c3.122-1.802,7.844-1.997,10.547-0.437l44.043,25.428c2.703,1.561,2.364,4.287-0.757,6.09l-42.527,24.553
			C192.119,221.787,187.397,221.982,184.694,220.422z"/>
		<path fill="#5A2091" d="M237.769,192.44l-42.527,24.554c-3.122,1.802-7.844,1.998-10.547,0.438l-44.044-25.43
			c-0.603-0.348-1.045-0.756-1.349-1.196c-0.929,1.494-0.507,3.115,1.349,4.188l44.044,25.429c2.703,1.561,7.425,1.365,10.547-0.438
			l42.527-24.553c2.426-1.4,3.162-3.357,2.106-4.893C239.451,191.221,238.746,191.875,237.769,192.44z"/>
		<g>
			<path fill="#6529AA" d="M224.137,211.375c0,1.135-0.796,2.514-1.778,3.081c-0.983,0.567-1.779,0.108-1.779-1.026
				s0.796-2.515,1.779-3.082C223.341,209.781,224.137,210.24,224.137,211.375z"/>
			<path fill="#6529AA" d="M229.86,208.07c0,1.135-0.796,2.514-1.778,3.081c-0.983,0.567-1.779,0.107-1.779-1.026
				c0-1.135,0.796-2.514,1.779-3.082C229.064,206.477,229.86,206.936,229.86,208.07z"/>
			<path fill="#6529AA" d="M235.584,204.766c0,1.135-0.796,2.514-1.779,3.082c-0.982,0.566-1.778,0.107-1.778-1.027
				s0.796-2.514,1.778-3.082C234.788,203.172,235.584,203.631,235.584,204.766z"/>
		</g>
		<g>
			<path fill="#310B45" d="M187.299,205.332l-20.61-11.898c-1.265-0.73-1.106-2.006,0.354-2.85l19.901-11.49
				c1.46-0.844,3.67-0.935,4.935-0.205l20.61,11.9c1.265,0.73,1.106,2.006-0.354,2.85l-19.9,11.489
				C190.773,205.971,188.563,206.063,187.299,205.332z"/>
			<path fill="#FF2C9C" d="M189.272,195.369l-2.852-1.646c-0.176-0.102-0.153-0.277,0.049-0.395l2.753-1.59
				c0.202-0.116,0.508-0.129,0.684-0.027l2.852,1.646c0.175,0.101,0.152,0.277-0.05,0.394l-2.753,1.59
				C189.753,195.457,189.447,195.471,189.272,195.369z"/>
			<path fill="#5A2091" d="M166.688,193.434l0.059,0.033c0.096-0.068,0.185-0.14,0.296-0.203l19.901-11.49
				c1.46-0.844,3.67-0.936,4.935-0.205l20.552,11.866c1.166-0.835,1.228-1.971,0.059-2.646l-20.61-11.9
				c-1.265-0.729-3.475-0.639-4.935,0.205l-19.901,11.49C165.582,191.428,165.424,192.703,166.688,193.434z"/>
		</g>
	</g>
</g>
<g>
	<polygon fill="#6529AA" points="134.929,134.51 110.812,120.636 134.214,107.814 137.974,113.958 	"/>
	<path fill="#6B30BF" d="M243.976,36.538l-23.969-13.79c0,0,0.901,13.762,0.901,13.79c0,0.028,13.77,4.265,13.77,4.265
		L243.976,36.538z"/>
	<path fill="#4D1877" d="M121.656,84.593c1.824-1.053,3.565-1.668,5.186-1.922c2.416-12.701,11.254-26.188,21.791-32.272
		c3.17-1.83,6.184-2.808,8.918-3.018c1.438-15.394,12.142-32.888,25.14-40.393c6.79-3.92,12.95-4.384,17.495-1.983V4.993
		l0.221,0.127c0.115,0.064,0.23,0.131,0.345,0.199l23.232,13.376l-4.696,3.709c4.216,1.842,6.881,6.57,6.881,13.56
		c0,12.889-9.049,28.561-20.211,35.005l-84.301,48.672c-8.382,4.839-15.177,0.917-15.177-8.762S113.274,89.432,121.656,84.593z"/>
	<path fill="#6529AA" d="M225.47,30.289L183.932,6.307c6.298-3.284,11.987-3.555,16.254-1.302V4.993l0.221,0.127
		c0.115,0.064,0.23,0.131,0.345,0.199l23.232,13.376l-4.696,3.709C222.234,23.692,224.419,26.395,225.47,30.289z"/>
	<path fill="#6529AA" d="M165.563,86.046l-32.768-18.918c4.06-7.021,9.649-13.156,15.838-16.729
		c0.819-0.473,1.628-0.886,2.424-1.247l39.204,22.635L165.563,86.046z"/>
	<path fill="#6B30BF" d="M217.314,20.246l-10.548,6.089L178.351,9.93c1.411-1.097,2.859-2.087,4.34-2.941
		c2.339-1.351,4.601-2.281,6.751-2.835L217.314,20.246z"/>
	<path fill="#6B30BF" d="M135.405,63.041l27.99,16.16l-6.571,7.328l-26.247-15.154C131.933,68.47,133.563,65.662,135.405,63.041z"/>
	<path fill="#5A2091" d="M145.594,98.362c1.824-1.053,3.565-1.667,5.186-1.922c2.417-12.701,11.254-26.188,21.791-32.271
		c3.17-1.83,6.184-2.808,8.918-3.019c1.438-15.394,12.143-32.889,25.14-40.393c13.979-8.07,25.311-1.528,25.311,14.612
		c0,0.547-0.016,1.1-0.042,1.655c10.223-4.74,18.209,0.601,18.209,12.709c0,12.889-9.049,28.561-20.211,35.005l-84.301,48.671
		c-8.382,4.839-15.177,0.916-15.177-8.762C130.417,114.97,137.212,103.201,145.594,98.362z"/>
	<g>
		<path fill="#310B45" d="M233.68,40.868l-6.337,2.938l0.322-6.978c0.022-0.489,0.037-0.976,0.037-1.459
			c0-6.229-1.881-10.744-5.295-12.716c-3.414-1.969-8.267-1.34-13.66,1.773c-11.601,6.698-21.722,23.002-23.04,37.118l-0.333,3.557
			l-3.561,0.273c-2.189,0.168-4.586,0.997-7.124,2.463c-9.215,5.32-17.52,17.682-19.747,29.395l-0.559,2.932l-2.948,0.462
			c-1.174,0.185-2.427,0.657-3.724,1.406c-7.078,4.087-13.058,14.444-13.058,22.616c0,3.058,0.848,5.302,2.326,6.156
			c1.478,0.853,3.846,0.466,6.494-1.063l84.302-48.672c9.807-5.661,18.092-20.012,18.092-31.336c0-4.444-1.31-7.829-3.595-9.289
			c-0.94-0.6-2.078-0.899-3.36-0.899C237.353,39.546,235.577,39.988,233.68,40.868z"/>
	</g>
	<g>
		<path fill="#6529AA" d="M189.894,84.129c0,1.346-0.944,2.981-2.109,3.654s-2.11,0.127-2.11-1.218c0-1.346,0.945-2.981,2.11-3.654
			S189.894,82.784,189.894,84.129z"/>
		<path fill="#6529AA" d="M196.682,80.21c0,1.346-0.944,2.981-2.109,3.654c-1.166,0.673-2.11,0.127-2.11-1.218
			c0-1.346,0.944-2.981,2.11-3.654C195.737,78.319,196.682,78.865,196.682,80.21z"/>
		<path fill="#6529AA" d="M203.47,76.291c0,1.346-0.945,2.981-2.11,3.654s-2.109,0.127-2.109-1.218c0-1.346,0.944-2.981,2.109-3.654
			S203.47,74.946,203.47,76.291z"/>
	</g>
</g>
<g>
	<g>
		<g>
			<path fill="#6B30BF" d="M122.401,218.035L122.401,218.035v-4.045l-21.48-0.012l0.148-0.005c-1.704-0.983-4.681-0.86-6.648,0.275
				l0.636-0.266l-21.5-0.012v4.317c-0.049,0.666,0.323,1.309,1.142,1.781l20.19,11.747c1.704,0.983,4.68,0.86,6.648-0.275
				l19.244-11.212C121.918,219.674,122.465,218.825,122.401,218.035z"/>
			<path fill="#6B30BF" d="M97.985,213.314c-1.247,0.03-2.541,0.344-3.563,0.935l0.636-0.266l-21.5-0.012v4.317
				c-0.049,0.666,0.323,1.309,1.142,1.781l20.19,11.747c0.819,0.474,1.932,0.688,3.085,0.659L97.985,213.314z"/>
			<path fill="#6B30BF" d="M75.991,213.973l-2.433-0.001v4.317c-0.049,0.666,0.323,1.309,1.142,1.781l1.292,0.746V213.973z"/>
			<path fill="#6529AA" d="M95.318,232.027c1.47,0.629,3.596,0.594,5.314-0.061v-5.652h-5.314V232.027z"/>
			<path fill="#310B45" d="M94.89,227.536L74.7,215.788c-1.704-0.983-1.49-2.702,0.477-3.838l19.245-11.212
				c1.967-1.137,4.944-1.26,6.648-0.276l20.19,11.748c1.704,0.983,1.49,2.702-0.478,3.838l-19.244,11.212
				C99.57,228.396,96.594,228.52,94.89,227.536z"/>
		</g>
	</g>
	<g>
		<path fill="#6529AA" d="M94.228,210.863c-1.141,0.65-2.985,0.642-4.119-0.021c-1.135-0.663-1.129-1.728,0.011-2.378
			c1.141-0.652,2.985-0.643,4.12,0.02S95.369,210.211,94.228,210.863z"/>
		<path fill="#6529AA" d="M100.836,214.721c-1.141,0.652-2.985,0.643-4.119-0.02c-1.135-0.662-1.129-1.727,0.011-2.379
			c1.141-0.65,2.985-0.642,4.12,0.021C101.982,213.006,101.977,214.07,100.836,214.721z"/>
		<path fill="#6529AA" d="M107.445,218.58c-1.141,0.651-2.985,0.643-4.12-0.02c-1.135-0.663-1.129-1.729,0.012-2.379
			c1.141-0.651,2.985-0.643,4.119,0.02C108.591,216.864,108.585,217.929,107.445,218.58z"/>
	</g>
</g>
<g>
	<g>
		<g>
			<path fill="#6B30BF" d="M334.333,257.957L334.333,257.957v-4.044l-21.48-0.013l0.148-0.004c-1.704-0.984-4.681-0.861-6.648,0.275
				l0.637-0.266l-21.5-0.012v4.316c-0.049,0.666,0.323,1.309,1.142,1.781l20.19,11.748c1.704,0.984,4.681,0.86,6.648-0.275
				l19.244-11.213C333.849,259.597,334.396,258.748,334.333,257.957z"/>
			<path fill="#6B30BF" d="M309.916,253.236c-1.247,0.031-2.541,0.346-3.563,0.936l0.637-0.266l-21.5-0.012v4.316
				c-0.049,0.666,0.323,1.309,1.142,1.781l20.19,11.748c0.819,0.473,1.932,0.688,3.085,0.659L309.916,253.236z"/>
			<path fill="#6B30BF" d="M287.923,253.896l-2.434-0.001v4.316c-0.049,0.666,0.323,1.309,1.142,1.781l1.292,0.746V253.896z"/>
			<path fill="#6529AA" d="M307.249,271.949c1.47,0.63,3.596,0.595,5.314-0.061v-5.651h-5.314V271.949z"/>
			<path fill="#310B45" d="M306.821,267.459l-20.19-11.748c-1.704-0.984-1.49-2.702,0.478-3.838l19.244-11.213
				c1.968-1.137,4.944-1.26,6.648-0.275l20.19,11.747c1.704,0.983,1.49,2.702-0.478,3.839l-19.244,11.212
				C311.502,268.318,308.525,268.441,306.821,267.459z"/>
		</g>
	</g>
	<g>
		<path fill="#6529AA" d="M306.159,250.785c-1.141,0.651-2.985,0.643-4.12-0.02c-1.134-0.662-1.129-1.728,0.012-2.379
			c1.141-0.65,2.985-0.643,4.12,0.02C307.305,249.069,307.3,250.135,306.159,250.785z"/>
		<path fill="#6529AA" d="M312.768,254.645c-1.141,0.65-2.985,0.642-4.119-0.021c-1.135-0.663-1.13-1.728,0.011-2.379
			s2.985-0.642,4.12,0.021C313.913,252.928,313.908,253.992,312.768,254.645z"/>
		<path fill="#6529AA" d="M319.376,258.502c-1.141,0.652-2.985,0.643-4.119-0.02c-1.135-0.662-1.13-1.727,0.012-2.379
			c1.141-0.65,2.984-0.642,4.119,0.021C320.522,256.787,320.517,257.852,319.376,258.502z"/>
	</g>
</g>
<g>
	<g>
		<g>
			<path fill="#6B30BF" d="M308.933,61.565L308.933,61.565v-4.044l-21.479-0.012l0.147-0.005c-1.703-0.983-4.68-0.86-6.647,0.275
				l0.637-0.265l-21.5-0.012v4.318c-0.049,0.666,0.322,1.308,1.142,1.781l20.19,11.748c1.704,0.984,4.681,0.861,6.647-0.275
				l19.245-11.213C308.449,63.205,308.997,62.355,308.933,61.565z"/>
			<path fill="#6B30BF" d="M284.517,56.845c-1.247,0.03-2.541,0.345-3.563,0.935l0.637-0.265l-21.5-0.012v4.318
				c-0.049,0.666,0.322,1.308,1.142,1.781l20.19,11.748c0.818,0.473,1.932,0.687,3.085,0.659L284.517,56.845z"/>
			<path fill="#6B30BF" d="M262.522,57.503l-2.433-0.001v4.318c-0.049,0.666,0.322,1.308,1.142,1.781l1.291,0.746V57.503z"/>
			<path fill="#6529AA" d="M281.85,75.558c1.47,0.63,3.596,0.595,5.314-0.061v-5.652h-5.314V75.558z"/>
			<path fill="#310B45" d="M281.422,71.066l-20.19-11.748c-1.704-0.984-1.49-2.702,0.478-3.838l19.244-11.212
				c1.968-1.136,4.944-1.259,6.647-0.276l20.19,11.748c1.704,0.983,1.491,2.702-0.477,3.838l-19.245,11.213
				C286.103,71.927,283.126,72.05,281.422,71.066z"/>
		</g>
	</g>
	<g>
		<path fill="#6529AA" d="M280.76,54.394c-1.141,0.651-2.985,0.642-4.12-0.021c-1.134-0.662-1.129-1.727,0.012-2.378
			c1.141-0.651,2.985-0.642,4.119,0.02C281.905,52.677,281.9,53.742,280.76,54.394z"/>
		<path fill="#6529AA" d="M287.368,58.252c-1.141,0.651-2.985,0.642-4.12-0.02c-1.134-0.663-1.129-1.727,0.012-2.378
			s2.985-0.643,4.12,0.021C288.514,56.536,288.509,57.601,287.368,58.252z"/>
		<path fill="#6529AA" d="M293.977,62.11c-1.141,0.651-2.985,0.643-4.12-0.02c-1.134-0.662-1.129-1.727,0.012-2.378
			s2.985-0.642,4.12,0.021C295.122,60.395,295.117,61.459,293.977,62.11z"/>
	</g>
</g>
<g>
	<g>
		<path fill="#6B30BF" d="M169.155,239.231c0,0-2.805-1.415-4.526,0.691c-1.723,2.105-4.185,7.077-4.261,10.436
			s2.658,3.132,4.284,2.337c1.625-0.795,6.373-7.683,6.66-9.032c0.288-1.35-0.339-3.175-0.796-3.531
			C170.061,239.775,169.155,239.231,169.155,239.231z"/>
		<path fill="#D4ECFF" d="M169.767,238.556l0.13,2.905c0.027,0.617-0.283,1.206-0.82,1.512c-0.49,0.277-1.202,0.49-2.164,0.336
			c-2.112-0.34-2.301-0.943-2.451-3.848C164.31,236.557,169.767,238.556,169.767,238.556z"/>
		<g>
			<path fill="#6B30BF" d="M158.891,233.645c0,0-2.805-1.414-4.526,0.691c-1.723,2.106-4.185,7.077-4.261,10.436
				c-0.076,3.359,2.658,3.133,4.284,2.338c1.625-0.795,6.373-7.683,6.66-9.032c0.288-1.35-0.339-3.175-0.795-3.531
				C159.796,234.189,158.891,233.645,158.891,233.645z"/>
			<path fill="#D4ECFF" d="M159.502,232.969l0.13,2.906c0.027,0.617-0.283,1.206-0.821,1.512c-0.489,0.277-1.201,0.49-2.163,0.336
				c-2.112-0.34-2.301-0.943-2.451-3.848C154.045,230.971,159.502,232.969,159.502,232.969z"/>
			<path fill="#310B45" d="M184.523,179.632c-0.829-13.504-14.624,1.987-14.624,1.987l-9.441,9.254l-8.502,9.339
				c-1.661,1.824-2.434,4.287-2.112,6.732l3.439,26.188c0.17,1.293,1.276,2.247,2.581,2.236c0.368-0.002,0.79-0.036,1.274-0.111
				c3.067-0.479,2.841-3.395,2.841-3.395l-0.628-24.494l17.854-10.763C177.206,196.606,185.354,193.136,184.523,179.632z"/>
		</g>
		<path fill="#310B45" d="M194.788,184.777c-0.829-13.504-14.624,1.986-14.624,1.986l-9.441,9.254l-8.502,9.34
			c-1.66,1.824-2.434,4.287-2.112,6.732l3.439,26.188c0.17,1.294,1.276,2.248,2.581,2.237c0.368-0.003,0.791-0.036,1.274-0.112
			c3.067-0.477,2.841-3.395,2.841-3.395l-0.628-24.493l17.854-10.763C187.471,201.752,195.618,198.281,194.788,184.777z"/>
		<path fill="#983BE9" d="M186.628,141.428c10.458,4.336,10.248,10.518,10.248,10.518s-2.048,22.665-1.349,37.801
			c0.292,6.327-33.619,6.811-28.563-10.071c5.963-19.904,3.729-36.018,6.52-38.448C176.275,138.797,183.922,140.307,186.628,141.428
			z"/>
		<circle fill="#FFC2B0" cx="182.682" cy="133.955" r="8.05"/>
		
			<ellipse transform="matrix(0.9684 0.2494 -0.2494 0.9684 42.14 -41.4797)" fill="#FFC2B0" cx="184.769" cy="145.564" rx="5.394" ry="3.97"/>
		<path fill="#FFC2B0" d="M182.435,140.957c0,0,0.09,0.419-0.091,3.733c-0.057,1.042,3.591,2.015,4.534,1.072
			c0.942-0.943,0.565-1.924,0.792-5.47S182.435,140.957,182.435,140.957z"/>
		<path fill="#310B45" d="M176.114,134.75c0,0,3.86-1.639,7.248-0.956c0.796,0.161,1.534,0.587,2.047,1.217
			c0.168,0.206,0.379,0.394,0.619,0.448c0.601,0.136,1.584-2.356,2.752-2.413c1.167-0.057,1.946,0.77,0.989,2.302
			c-0.958,1.533-0.634,3.248-0.193,3.494s5.112-3.332,0.991-11.495c-4.121-8.164-14.589-3.767-16.217-2.112
			c0,0-1.715,1.494-3.109,0.165C171.241,125.399,169.678,137.111,176.114,134.75z"/>
		<path fill="#FFC2B0" d="M191.01,168.505v6.124c0,0.701-0.296,1.371-0.814,1.844l-12.581,11.471l1.43,2.186l16.616-10.684
			c0.775-0.563,1.276-1.428,1.376-2.381l1.121-12.047L191.01,168.505z"/>
		<path fill="#983BE9" d="M195.991,148.884c0,0,3.816,5.74,5.238,20.849c0,0-6.52,2.109-10.22,0.912
			S195.991,148.884,195.991,148.884z"/>
		<path fill="#6614CF" d="M190.313,156.142c0,0-1.494,7.997-1.579,11.755c-0.023,1.033,0.607,1.966,1.579,2.317l0,0V156.142z"/>
	</g>
	<g>
		<path fill="#6529AA" d="M187.049,195.906l-2.781-0.367l-17.949-10.363c-0.575-0.332-1.581-0.291-2.245,0.093l-12.719,7.341
			l-1.682-0.223v1.674l0.002,0.001c-0.011,0.22,0.114,0.433,0.386,0.589l20.342,11.744c0.576,0.333,1.581,0.291,2.245-0.092
			l13.852-7.995c0.374-0.216,0.561-0.493,0.55-0.755l0,0V195.906z"/>
		<path fill="#6529AA" d="M173.562,189.357l-1.275-0.736h-14.02l-6.912,3.988l-1.682-0.223v1.674l0.002,0.001
			c-0.011,0.22,0.114,0.433,0.386,0.589l20.342,11.744c0.305,0.176,0.729,0.246,1.159,0.218L173.562,189.357z"/>
		<path fill="#5793CE" d="M150.419,192.486l-0.746-0.1v1.674l0.002,0.001c-0.011,0.22,0.114,0.433,0.386,0.589l0.358,0.207V192.486z
			"/>
		<path fill="#6529AA" d="M170.607,206.49c0.546,0.207,1.325,0.162,1.907-0.118v-2.849h-1.907V206.49z"/>
		<path fill="#FFFFFF" d="M170.402,204.723l-20.342-11.744c-0.575-0.333-0.503-0.913,0.161-1.297l13.852-7.994
			c0.664-0.384,1.67-0.426,2.245-0.094l20.342,11.745c0.575,0.332,0.504,0.913-0.161,1.296l-13.852,7.994
			C171.983,205.014,170.979,205.055,170.402,204.723z"/>
		<path fill="#6529AA" d="M170.059,202.942l-16.914-9.766c-0.479-0.276-0.419-0.759,0.134-1.077l7.423-4.174
			c0.552-0.32,1.388-0.354,1.866-0.078l16.915,9.766c0.479,0.276,0.418,0.759-0.135,1.078l-7.422,4.174
			C171.373,203.184,170.537,203.219,170.059,202.942z"/>
	</g>
	<path fill="#FFC2B0" d="M164.859,183.302l-0.21,1.403c-0.18,1.196-0.148,2.414,0.092,3.6l0.25,1.236
		c0.142,0.697,0.693,1.238,1.394,1.367l0,0c0.547,0.099,1.063-0.285,1.126-0.838l0.335-3c0,0,0.769,1.006,1.139,1.006
		c0.371,0-0.415-3.006-1.253-4.706S164.859,183.302,164.859,183.302z"/>
	<path fill="#FFC2B0" d="M171.755,160.994l-2.183,4.32c-0.516,1.021-0.819,2.137-0.893,3.279l-0.948,14.776l-2.872-0.068
		l-1.303-16.595c-0.04-0.512-0.016-1.027,0.074-1.533l1.488-8.415L171.755,160.994z"/>
	<g>
		<path fill="#6529AA" d="M169.878,205.768l-1.705-2.227l-17.938-10.385c-0.574-0.332-1.04-1.225-1.039-1.992l0.016-14.685
			l-1.031-1.347l0.969-0.561l0.001,0.001c0.186-0.12,0.433-0.116,0.703,0.04l20.328,11.77c0.575,0.333,1.04,1.225,1.039,1.992
			l-0.017,15.993c-0.001,0.432-0.148,0.731-0.381,0.853l0,0L169.878,205.768z"/>
		<path fill="#6529AA" d="M157.474,197.348l-1.274-0.738l-6.995-12.15l0.008-7.979l-1.031-1.347l0.969-0.561l0.001,0.001
			c0.186-0.12,0.433-0.116,0.703,0.04l20.328,11.77c0.304,0.176,0.576,0.509,0.767,0.896L157.474,197.348z"/>
		<path fill="#5793CE" d="M148.638,175.73l-0.457-0.598l0.969-0.561l0.001,0.001c0.186-0.12,0.433-0.116,0.703,0.04l0.358,0.207
			L148.638,175.73z"/>
		<path fill="#6529AA" d="M170.366,186.513c0.451,0.37,0.802,1.067,0.85,1.712l-1.987,1.147l-0.951-1.653L170.366,186.513z"/>
		<path fill="#FFFFFF" d="M169.214,186.943l-20.328-11.77c-0.575-0.332-1.042,0.02-1.043,0.787l-0.017,15.992
			c-0.002,0.768,0.464,1.66,1.039,1.992l20.328,11.77c0.574,0.333,1.041-0.02,1.042-0.786l0.018-15.993
			C170.254,188.168,169.788,187.277,169.214,186.943z"/>
	</g>
	<path fill="#FFC2B0" d="M179.044,190.129l-0.326,0.675c-0.375,0.776-0.964,1.431-1.699,1.884L175,193.932
		c-0.628,0.387-1.424,0.419-2.062,0.047c-0.022-0.013-0.046-0.026-0.068-0.041c-0.642-0.402-0.7-1.323-0.172-1.866l2.11-2.169
		c0,0-1.186,0.908-1.518,0.543c-0.244-0.269,1.149-1.576,2.219-1.619s2.104-0.883,2.104-0.883L179.044,190.129z"/>
	<path fill="#983BE9" d="M173.693,141.196c0,0-7.735,8.416-10.855,16.137c0,0,2.646,4.766,9.12,6.635
		C178.433,165.839,173.693,141.196,173.693,141.196z"/>
	<path fill="#6614CF" d="M170.502,163.47l1.253-12.111l-2.954,11.346C169.327,162.98,169.897,163.235,170.502,163.47z"/>
	<path fill="#FFFFFF" d="M179.487,139.498l-2.078-0.571c0,0,0.992,1.561,2.44,1.959c1.449,0.398,1.674-0.829,1.674-0.829
		L179.487,139.498z"/>
</g>
</svg>
